<svg width="247" height="110" viewBox="0 0 247 110" fill="none" xmlns="http://www.w3.org/2000/svg">
    <path fill-rule="evenodd" clip-rule="evenodd"
        d="M229.472 48.862C229.472 47.8173 229.839 46.9287 230.569 46.1932C231.306 45.4536 232.192 45.0824 233.233 45.0824C234.274 45.0824 235.163 45.4536 235.899 46.1932C236.631 46.9287 236.998 47.8173 236.998 48.862C236.998 49.9108 236.631 50.8058 235.899 51.5454C235.168 52.2858 234.277 52.6551 233.233 52.6551C232.185 52.6551 231.294 52.2858 230.562 51.5454C229.836 50.8058 229.472 49.9108 229.472 48.862ZM236.335 51.9703C237.193 51.11 237.621 50.0741 237.621 48.862C237.621 47.6521 237.193 46.6207 236.335 45.7703C235.483 44.9173 234.444 44.4917 233.233 44.4917C232.025 44.4917 230.994 44.9173 230.145 45.7703C229.288 46.6245 228.86 47.6548 228.859 48.862C228.859 50.0778 229.285 51.1131 230.133 51.9703C230.984 52.8297 232.018 53.2583 233.233 53.2583C234.445 53.2583 235.482 52.8297 236.335 51.9703Z"
        fill="white" />
    <path fill-rule="evenodd" clip-rule="evenodd"
        d="M233.077 48.7658H232.312V47.0223L233.035 47.0235C233.506 47.0235 233.842 47.0813 234.054 47.2019C234.27 47.3217 234.38 47.5556 234.38 47.906C234.377 48.2771 234.21 48.527 233.882 48.6577C233.703 48.7296 233.435 48.7658 233.077 48.7658ZM234.381 50.617V50.9984L234.395 51.153C234.401 51.1723 234.406 51.1885 234.408 51.2067C234.413 51.2237 234.415 51.2373 234.419 51.2524H235.216L235.186 51.1942C235.163 51.1549 235.15 51.0702 235.143 50.9432C235.134 50.8162 235.132 50.6972 235.132 50.5853V50.2323C235.132 49.9908 235.044 49.7436 234.866 49.4881C234.694 49.233 234.415 49.0769 234.039 49.0164C234.338 48.9669 234.567 48.8917 234.735 48.7828C235.051 48.5814 235.209 48.2654 235.209 47.8346C235.209 47.2291 234.959 46.8239 234.462 46.6157C234.183 46.5019 233.746 46.4448 233.149 46.4448H231.466V51.2524H232.312V49.3554H232.98C233.432 49.3554 233.746 49.408 233.923 49.5096C234.226 49.6899 234.38 50.0577 234.381 50.617Z"
        fill="white" />
    <path fill-rule="evenodd" clip-rule="evenodd"
        d="M220.318 29.1279L208.786 29.1256C208.665 29.1517 208.542 29.1649 208.416 29.1649L200.81 29.1755C200.801 29.1793 200.792 29.1804 200.783 29.1842H87.2334C87.693 29.332 91.6743 30.095 90.1368 35.163H203.888C203.897 35.1449 203.907 35.1252 203.916 35.1071H218.518C231.408 35.1071 240.452 44.6406 240.452 56.4043C240.452 68.1655 231.317 77.6993 218.518 77.6993L185.673 77.6241C185.675 77.6498 185.669 77.6751 185.669 77.7012H164.486C164.486 77.7005 164.486 77.6997 164.486 77.6993L111.052 77.7058C107.051 77.5701 106.147 76.0802 105.552 74.901C104.961 73.7214 103.441 69.607 103.441 69.607L98.0273 55.0819L102.924 44.8885H95.2305L91.807 51.2801C91.807 51.2801 91.0412 53.0942 88.7924 52.9578H81.8989L85.3829 43.6643L88.4901 35.1623C90.2532 29.9915 83.3253 29.1876 80.6653 29.1876L25.9362 29.1812C11.4845 29.5217 0.000366211 41.2069 0.000366211 55.6046V56.8488C0.000366211 71.2458 11.5669 83.4529 27.8105 83.5047H101.86C101.839 83.4986 101.817 83.4896 101.796 83.4835L86.4911 83.4756H101.772C101.161 83.2949 100.49 82.9846 100.02 82.7106C98.2458 81.599 97.883 80.687 96.116 77.6241H27.843C15.0323 77.6241 5.90966 68.0899 5.90966 56.3299C5.99772 45.6176 12.5125 38.3654 21.9258 35.7711C21.9258 35.7708 23.6394 35.2549 25.2911 35.0629C25.3875 35.0515 25.4831 35.039 25.5726 35.039L79.5632 35.0421C80.1562 35.0421 80.5024 35.4102 80.1248 36.4639L67.259 69.5858H75.5951L80.064 57.8719H89.0196C89.0196 57.8719 90.7408 57.703 91.5481 59.6937L97.799 75.9335C99.1827 79.3616 101.045 80.7581 101.045 80.7581C103.848 83.2284 108.312 83.4397 110.961 83.4756H156.144H165.484C165.933 83.4903 166.597 83.499 167.397 83.4756H176.284H186.739H220.318C234.251 83.6944 246.361 71.321 246.361 56.9244V55.6783C246.361 41.2806 234.655 28.8425 220.318 29.1279Z"
        fill="white" />
    <path fill-rule="evenodd" clip-rule="evenodd"
        d="M101.796 83.4835L112.111 83.4888C111.789 83.4835 111.397 83.4816 110.961 83.4756H101.772C101.78 83.4782 101.788 83.4813 101.796 83.4835Z"
        fill="white" />
    <path fill-rule="evenodd" clip-rule="evenodd"
        d="M133.216 44.8794L113.903 44.8491L104.496 69.5325L112.634 69.4856L120.226 49.6692H129.316C131.663 49.6729 130.815 51.5941 130.815 51.5941L129.378 55.4685H137.464L138.774 52.0253C141.317 44.9001 133.216 44.8794 133.216 44.8794Z"
        fill="white" />
    <path fill-rule="evenodd" clip-rule="evenodd"
        d="M168.512 51.8811L163.575 64.651H148.958C146.028 64.651 147.419 62.4464 147.419 62.4464L152.27 49.7188C152.27 49.7188 164.984 49.6776 167.229 49.6776C169.479 49.6776 168.512 51.8811 168.512 51.8811ZM171.101 44.7778H145.984L139.254 62.6607C139.254 62.6607 136.752 69.5046 145.129 69.5046H169.904L176.547 52.2216C176.547 52.2216 179.35 44.7778 171.101 44.7778Z"
        fill="white" />
    <path fill-rule="evenodd" clip-rule="evenodd"
        d="M210.727 69.5062H218.847C218.847 69.5062 222.626 59.6662 225.56 51.9669C228.45 44.3829 220.084 44.8655 220.084 44.8655H184.824L175.44 69.5062H183.645L191.172 49.7207H200.595L193.075 69.5496H201.409L208.89 49.6776C208.89 49.6776 213.529 49.6776 216.026 49.6776C218.53 49.6776 217.482 51.7972 217.482 51.7972L210.727 69.5062Z"
        fill="white" />
    <path fill-rule="evenodd" clip-rule="evenodd"
        d="M53.9384 55.7734L51.9727 60.7114L67.0133 60.7983L69.0066 55.9435L53.9384 55.7734Z"
        fill="white" />
    <path fill-rule="evenodd" clip-rule="evenodd"
        d="M44.1917 53.801C44.1917 53.801 43.3795 56.2116 40.8499 56.1692C37.6343 56.1144 26.0719 56.1265 26.0719 56.1265L27.5184 52.3119C27.5184 52.3119 28.3771 49.5622 31.7798 49.5622H45.7247L44.1917 53.801ZM29.8431 44.7256C22.2603 44.7256 20.2632 51.0537 20.2632 51.0537C20.2632 51.0537 17.6852 58.0008 15.4503 63.6285C13.2117 69.2536 19.1297 69.2729 19.1297 69.2729H46.1926L48.172 63.9245H24.2434C22.71 63.9245 23.4535 62.7932 23.4535 62.7932L24.2007 60.9624H43.979C48.8118 61.0562 50.2979 56.5929 50.2979 56.5929L54.7733 44.7256H29.8431Z"
        fill="white" />
    <path fill-rule="evenodd" clip-rule="evenodd"
        d="M33.1729 105.171C33.1729 103.71 31.892 102.98 29.331 102.98C28.8246 102.98 28.3876 102.998 28.0206 103.035C28.0206 104.569 28.0501 105.981 28.1087 107.273C28.3657 107.332 28.7437 107.361 29.2429 107.361C30.6006 107.361 31.5949 107.198 32.2261 106.871C32.8573 106.545 33.1729 105.978 33.1729 105.171ZM36.1342 105.049C36.1342 107.97 33.7489 109.43 28.9788 109.43C28.1491 109.43 26.8573 109.409 25.1036 109.364C25.1989 107.119 25.2465 104.62 25.2465 101.868C25.2465 98.9688 25.1989 96.6901 25.1036 95.0312H35.1545L35.0664 97.4422C32.3361 97.325 29.9437 97.2661 27.8887 97.2661C27.9768 98.1981 28.0206 99.3947 28.0206 100.855C28.6152 100.826 29.1326 100.811 29.5729 100.811C33.9469 100.811 36.1342 102.224 36.1342 105.049Z"
        fill="white" />
    <path fill-rule="evenodd" clip-rule="evenodd"
        d="M53.0438 109.364H49.9283C50.0235 107.09 50.0712 104.591 50.0712 101.868C50.0712 99.1891 50.0235 96.9101 49.9283 95.0312H53.0438C52.941 96.8806 52.8896 99.1596 52.8896 101.868C52.8896 104.635 52.941 107.134 53.0438 109.364ZM45.778 104.818C45.778 103.96 45.4329 103.345 44.7432 102.974C44.053 102.604 43.2457 102.418 42.3212 102.418C41.9542 102.418 41.613 102.436 41.2974 102.473C41.2974 104.007 41.3193 105.607 41.3635 107.273C41.6715 107.332 41.9614 107.361 42.2332 107.361C44.5961 107.361 45.778 106.513 45.778 104.818ZM48.7393 104.708C48.7393 106.264 48.1228 107.44 46.8899 108.237C45.6567 109.033 44.0201 109.43 41.9799 109.43C41.1503 109.43 39.9322 109.409 38.3248 109.364C38.4204 107.119 38.468 104.62 38.468 101.868C38.468 98.9688 38.4204 96.6901 38.3248 95.0312H41.4406C41.3964 95.5082 41.3488 97.2699 41.2974 100.315C41.7672 100.279 42.1961 100.261 42.5854 100.261C44.3542 100.261 45.8218 100.607 46.989 101.301C48.1557 101.995 48.7393 103.13 48.7393 104.708Z"
        fill="white" />
    <path fill-rule="evenodd" clip-rule="evenodd"
        d="M66.2434 95.0312L66.1663 97.3984C64.6979 97.2884 63.3146 97.2332 62.0156 97.2332C62.0012 98.6203 61.9941 100.165 61.9941 101.868C61.9941 104.51 62.0345 107.009 62.1146 109.364H59.0324C59.1277 107.031 59.1757 104.532 59.1757 101.868C59.1757 100.194 59.1609 98.6498 59.1314 97.2332C58.0966 97.2332 56.6766 97.2918 54.8712 97.4089L54.9592 95.0312H66.2434Z"
        fill="white" />
    <path fill-rule="evenodd" clip-rule="evenodd"
        d="M78.3088 102.253C78.3088 100.719 77.9165 99.475 77.1307 98.521C76.3453 97.5667 75.3766 97.0897 74.2246 97.0897C73.1531 97.0897 72.2434 97.5705 71.4943 98.532C70.7459 99.4935 70.3718 100.708 70.3718 102.176C70.3718 103.702 70.7656 104.944 71.5548 105.902C72.3435 106.86 73.3111 107.339 74.4559 107.339C75.5274 107.339 76.4372 106.856 77.1863 105.891C77.9346 104.927 78.3088 103.713 78.3088 102.253ZM81.3471 101.934C81.3471 104.187 80.6574 106.054 79.2775 107.537C77.8979 109.019 76.1915 109.761 74.1585 109.761C72.2211 109.761 70.5989 109.08 69.2923 107.719C67.9861 106.357 67.3334 104.627 67.3334 102.528C67.3334 100.275 68.0228 98.4069 69.4031 96.9246C70.7826 95.4426 72.4887 94.7007 74.5217 94.7007C76.4594 94.7007 78.0816 95.3799 79.3878 96.7375C80.694 98.0955 81.3471 99.8272 81.3471 101.934Z"
        fill="white" />
    <path fill-rule="evenodd" clip-rule="evenodd"
        d="M91.8497 105.17C91.8497 103.71 90.5692 102.979 88.0074 102.979C87.5013 102.979 87.0648 102.998 86.6978 103.035C86.6978 104.568 86.7307 105.981 86.7968 107.273C87.0459 107.332 87.4201 107.361 87.9194 107.361C89.2773 107.361 90.2717 107.198 90.9029 106.871C91.5345 106.545 91.8497 105.977 91.8497 105.17ZM91.0462 99.0052C91.0462 97.6918 90.2237 97.0345 88.58 97.0345C87.8237 97.0345 87.1525 97.0897 86.5655 97.1997C86.646 97.9408 86.6861 99.2142 86.6861 101.02C86.9654 101.034 87.2591 101.042 87.5675 101.042C89.8862 101.042 91.0458 100.363 91.0462 99.0052ZM94.8219 105.049C94.8219 107.97 92.4332 109.43 87.6555 109.43C86.8256 109.43 85.5345 109.409 83.78 109.364C83.8756 107.148 83.9236 104.649 83.9236 101.867C83.9236 99.196 83.8756 96.9173 83.78 95.031H85.5639C85.9015 95.031 86.4684 95.0204 87.2647 94.9981C88.0611 94.9758 88.6824 94.9648 89.1307 94.9648C92.3818 94.9648 94.0074 96.022 94.0074 98.1355C94.0074 99.7648 93.1744 100.844 91.5084 101.372V101.537C92.3962 101.677 93.171 102.024 93.8317 102.578C94.4916 103.132 94.8219 103.956 94.8219 105.049Z"
        fill="white" />
    <path fill-rule="evenodd" clip-rule="evenodd"
        d="M104.664 103.145C103.409 99.3581 102.782 97.3099 102.782 97.0019H102.605C102.605 97.2884 101.956 99.3358 100.657 103.145H104.664ZM109.75 109.364H106.227C106.227 108.88 105.893 107.508 105.225 105.247H100.14C99.4496 107.471 99.1049 108.844 99.1049 109.364H95.7906C95.7906 109.079 96.6478 106.73 98.361 102.319C100.075 97.9082 100.932 95.4795 100.932 95.0312H105.093C105.093 95.45 105.869 97.844 107.422 102.214C108.974 106.585 109.75 108.969 109.75 109.364Z"
        fill="white" />
    <path fill-rule="evenodd" clip-rule="evenodd"
        d="M118.755 101.493C118.755 99.9516 118.722 98.521 118.656 97.1997C117.798 97.0969 117.045 97.0455 116.399 97.0455C114.667 97.0455 113.801 97.688 113.801 98.9723C113.801 100.675 115.038 101.526 117.511 101.526C117.973 101.526 118.388 101.515 118.755 101.493ZM121.717 109.364H118.656C118.722 107.654 118.755 105.739 118.755 103.618C118.374 103.596 117.922 103.585 117.401 103.585C116.491 103.585 115.786 103.899 115.287 104.526C114.788 105.153 114.231 106.546 113.614 108.704C113.54 108.968 113.445 109.188 113.328 109.364H110.113C110.223 109.13 110.417 108.649 110.697 107.922C111.372 105.948 111.939 104.645 112.397 104.014C112.856 103.383 113.471 102.965 114.241 102.759V102.583C112.076 102.135 110.994 100.939 110.994 98.9942C110.994 96.3077 112.858 94.9648 116.586 94.9648C117.144 94.9648 117.773 94.9758 118.475 94.9981C119.175 95.0204 119.617 95.031 119.801 95.031H121.717C121.614 96.9245 121.562 99.207 121.562 101.878C121.562 104.653 121.614 107.148 121.717 109.364Z"
        fill="white" />
    <path fill-rule="evenodd" clip-rule="evenodd"
        d="M139.804 95.0312L139.727 97.3984C138.259 97.2884 136.875 97.2332 135.576 97.2332C135.562 98.6203 135.555 100.165 135.555 101.868C135.555 104.51 135.595 107.009 135.675 109.364H132.593C132.689 107.031 132.736 104.532 132.736 101.868C132.736 100.194 132.721 98.6498 132.692 97.2332C131.658 97.2332 130.237 97.2918 128.432 97.4089L128.52 95.0312H139.804Z"
        fill="white" />
    <path fill-rule="evenodd" clip-rule="evenodd"
        d="M151.088 106.943L151 109.364H141.631C141.727 107.148 141.774 104.649 141.774 101.868C141.775 99.1963 141.727 96.9176 141.631 95.0312H150.571L150.449 97.4422C148.248 97.325 146.251 97.2661 144.461 97.2661C144.534 98.2866 144.571 99.49 144.571 100.877C146.105 100.877 147.745 100.837 149.491 100.756V103.056C147.775 102.983 146.134 102.946 144.571 102.946C144.571 104.437 144.6 105.831 144.659 107.13C146.67 107.13 148.813 107.068 151.088 106.943Z"
        fill="white" />
    <path fill-rule="evenodd" clip-rule="evenodd"
        d="M165.058 109.364H161.37C161.37 109.108 160.952 108.165 160.115 106.536C159.3 104.943 158.717 103.904 158.364 103.42H158.189C157.873 103.853 157.345 104.87 156.604 106.47C155.84 108.106 155.458 109.071 155.458 109.364H152.057C152.057 109.145 152.771 107.908 154.198 105.655C155.625 103.402 156.541 102.077 156.945 101.681V101.515C156.548 101.061 155.766 99.9446 154.599 98.1686C153.396 96.3125 152.794 95.266 152.794 95.0312H156.339C156.339 95.266 156.68 96.0551 157.363 97.3984C158.046 98.7412 158.526 99.5818 158.806 99.9189H158.981C159.253 99.5742 159.713 98.734 160.363 97.3984C161.013 96.0623 161.337 95.2735 161.337 95.0312H164.596C164.596 95.2369 163.966 96.2554 162.708 98.0866C161.449 99.9178 160.643 101.006 160.291 101.35V101.515C160.776 102.044 161.691 103.416 163.038 105.633C164.385 107.849 165.058 109.094 165.058 109.364Z"
        fill="white" />
    <path fill-rule="evenodd" clip-rule="evenodd"
        d="M178.323 109.364H175.208C175.282 106.936 175.318 104.829 175.318 103.046H169.77C169.77 104.646 169.807 106.752 169.88 109.364H166.764C166.86 106.943 166.907 104.444 166.907 101.868C166.907 99.2624 166.86 96.9838 166.764 95.0312H169.88C169.792 97.0937 169.748 99.0016 169.748 100.756H175.34C175.34 99.2072 175.296 97.299 175.208 95.0312H178.323C178.221 96.8957 178.17 99.174 178.17 101.868C178.17 104.678 178.221 107.178 178.323 109.364Z"
        fill="white" />
    <path fill-rule="evenodd" clip-rule="evenodd"
        d="M193.615 109.364H190.499C190.602 108.154 190.654 106.323 190.654 103.872C190.654 102.881 190.694 101.482 190.774 99.677H190.609C190.352 100.338 189.112 101.981 186.889 104.609C184.877 107.002 183.872 108.587 183.872 109.364H181.494C181.619 107.42 181.682 105.152 181.682 102.562C181.682 99.9269 181.619 97.4169 181.494 95.0312H184.599C184.496 96.8957 184.444 98.9098 184.444 101.075C184.444 102.044 184.393 103.255 184.29 104.708H184.456C184.764 103.981 186.029 102.319 188.254 99.7213C190.228 97.4089 191.215 95.8457 191.215 95.0312H193.615C193.505 97.4169 193.449 99.9269 193.449 102.562C193.449 105.152 193.505 107.42 193.615 109.364Z"
        fill="white" />
    <path fill-rule="evenodd" clip-rule="evenodd"
        d="M208.157 109.364H204.7C204.635 109.254 204.535 109.005 204.404 108.616C203.802 106.297 203.237 104.804 202.708 104.136C202.18 103.468 201.423 103.134 200.44 103.134C200.161 103.134 199.938 103.148 199.769 103.178C199.769 105.299 199.809 107.361 199.889 109.364H196.785C196.88 107.148 196.928 104.649 196.928 101.868C196.928 99.1963 196.88 96.9176 196.785 95.0312H199.889C199.809 97.2037 199.769 99.1815 199.769 100.965C200.07 100.979 200.293 100.987 200.44 100.987C202.451 100.987 203.772 99.2295 204.404 95.7134C204.447 95.4572 204.535 95.2293 204.668 95.0312H207.64C207.545 95.2588 207.397 95.659 207.199 96.2312C206.715 97.9483 206.196 99.2001 205.642 99.9851C205.088 100.77 204.341 101.362 203.402 101.758L203.402 101.879C204.378 102.195 205.128 102.72 205.653 103.453C206.178 104.187 206.851 105.754 207.673 108.154C207.775 108.462 207.937 108.866 208.157 109.364Z"
        fill="white" />
    <path fill-rule="evenodd" clip-rule="evenodd"
        d="M217.636 103.145C216.381 99.3581 215.754 97.3099 215.754 97.0019H215.577C215.577 97.2884 214.928 99.3358 213.629 103.145H217.636ZM222.722 109.364H219.199C219.199 108.88 218.865 107.508 218.197 105.247H213.111C212.422 107.471 212.076 108.844 212.076 109.364H208.763C208.763 109.079 209.62 106.73 211.333 102.319C213.047 97.9082 213.904 95.4795 213.904 95.0312H218.065C218.065 95.45 218.841 97.844 220.394 102.214C221.946 106.585 222.721 108.969 222.722 109.364Z"
        fill="white" />
    <path fill-rule="evenodd" clip-rule="evenodd"
        d="M37.7427 18.5026H34.3052C34.2395 18.3934 34.1408 18.1451 34.0097 17.7585C33.411 15.4522 32.849 13.9668 32.3236 13.3024C31.7983 12.6383 31.0462 12.3061 30.0684 12.3061C29.791 12.3061 29.5684 12.3209 29.4006 12.35C29.4006 14.4593 29.4406 16.5105 29.5211 18.5026H26.4336C26.5285 16.2988 26.5761 13.8134 26.5761 11.0471C26.5761 8.39052 26.5285 6.12431 26.4336 4.24854H29.5211C29.4406 6.40891 29.4006 8.37616 29.4006 10.1495C29.6999 10.1643 29.9221 10.1714 30.0684 10.1714C32.0681 10.1714 33.3819 8.4234 34.0097 4.92734C34.0535 4.67184 34.1408 4.44583 34.2724 4.24854H37.2283C37.1335 4.47493 36.9876 4.87253 36.7903 5.44211C36.3088 7.1497 35.7921 8.3943 35.2414 9.17515C34.69 9.95638 33.9477 10.5437 33.0134 10.9379V11.0581C33.984 11.3722 34.7304 11.8941 35.252 12.6236C35.774 13.3538 36.4437 14.9117 37.2612 17.2985C37.3633 17.605 37.5239 18.0064 37.7427 18.5026Z"
        fill="white" />
    <path fill-rule="evenodd" clip-rule="evenodd"
        d="M50.4204 4.24854C50.4204 4.65748 49.9514 6.1005 49.0137 8.57836C48.076 11.0566 47.1617 13.0907 46.2712 14.6819C45.3808 16.2731 44.465 17.3805 43.5235 18.0045C42.5821 18.6285 41.2535 18.9407 39.5384 18.9407L39.3305 16.6526C40.6443 16.6526 41.613 16.5123 42.237 16.2311C42.861 15.9503 43.3519 15.3645 43.7095 14.474C43.7095 13.985 42.8372 12.1988 41.0929 9.11506C39.3487 6.03134 38.4763 4.40917 38.4763 4.24854H41.9361C41.9361 4.45301 42.4668 5.68816 43.5288 7.95436C44.5909 10.2206 45.1219 11.5109 45.1219 11.8246H45.2421C46.7237 7.68639 47.4648 5.16091 47.4648 4.24854H50.4204Z"
        fill="white" />
    <path fill-rule="evenodd" clip-rule="evenodd"
        d="M63.2186 18.5026H59.5514C59.5514 18.2475 59.1352 17.3094 58.303 15.6892C57.493 14.1055 56.9129 13.0726 56.5625 12.5907H56.3871C56.0734 13.0216 55.5477 14.0326 54.8107 15.6234C54.0518 17.2512 53.6723 18.2109 53.6723 18.5026H50.2892C50.2892 18.2838 50.999 17.054 52.4186 14.8134C53.8382 12.5726 54.7487 11.2554 55.1501 10.8612V10.6968C54.7559 10.2444 53.9788 9.13509 52.8181 7.36853C51.6212 5.52224 51.0229 4.48211 51.0229 4.24854H54.548C54.548 4.48211 54.8874 5.26674 55.5662 6.60242C56.245 7.93811 56.7228 8.77376 57.0002 9.10938H57.1755C57.4454 8.76658 57.9035 7.93093 58.5494 6.60242C59.1953 5.27392 59.5181 4.48929 59.5181 4.24854H62.7587C62.7587 4.45301 62.1328 5.46554 60.8814 7.28652C59.6296 9.10787 58.8287 10.1896 58.4783 10.5328V10.6968C58.9599 11.2225 59.8704 12.5873 61.2098 14.7915C62.5489 16.9957 63.2186 18.2328 63.2186 18.5026Z"
        fill="white" />
    <path fill-rule="evenodd" clip-rule="evenodd"
        d="M75.0973 11.4302C75.0973 9.9048 74.7069 8.66776 73.9257 7.7191C73.1448 6.77006 72.1814 6.29573 71.0355 6.29573C69.97 6.29573 69.0648 6.77384 68.3206 7.72969C67.5761 8.68628 67.2038 9.89384 67.2038 11.3535C67.2038 12.8717 67.5957 14.1069 68.3807 15.0593C69.1653 16.0118 70.1269 16.4884 71.2656 16.4884C72.3311 16.4884 73.2359 16.0084 73.9808 15.0487C74.725 14.0887 75.0973 12.8827 75.0973 11.4302ZM78.1187 11.1127C78.1187 13.3536 77.4331 15.2113 76.0607 16.6853C74.6884 18.1597 72.9917 18.8967 70.9701 18.8967C69.0433 18.8967 67.4302 18.2198 66.1311 16.8659C64.8317 15.5121 64.182 13.7913 64.182 11.7039C64.182 9.46336 64.868 7.60572 66.2404 6.13132C67.6127 4.65731 69.3093 3.91992 71.331 3.91992C73.2582 3.91992 74.8709 4.59532 76.1699 5.94537C77.469 7.2958 78.1187 9.01813 78.1187 11.1127Z"
        fill="white" />
    <path fill-rule="evenodd" clip-rule="evenodd"
        d="M92.0341 18.5026H88.9357C89.0082 16.0871 89.0449 13.9922 89.0449 12.2188H83.5272C83.5272 13.81 83.5638 15.9046 83.6364 18.5026H80.5387C80.6328 16.0943 80.6808 13.6089 80.6808 11.0471C80.6808 8.45628 80.6328 6.19008 80.5387 4.24854H83.6364C83.5487 6.29968 83.5049 8.19701 83.5049 9.94164H89.0672C89.0672 8.40148 89.0234 6.50378 88.9353 4.24854H92.0341C91.9313 6.10239 91.8803 8.3686 91.8803 11.0471C91.8803 13.8429 91.9313 16.3279 92.0341 18.5026Z"
        fill="white" />
    <path fill-rule="evenodd" clip-rule="evenodd"
        d="M106.682 18.5026H103.584C103.657 16.0871 103.693 13.9922 103.693 12.2188H98.1755C98.1755 13.81 98.2118 15.9046 98.2847 18.5026H95.1866C95.2815 16.0943 95.3287 13.6089 95.3287 11.0471C95.3287 8.45628 95.2815 6.19008 95.1862 4.24854H98.2851C98.1974 6.29968 98.1536 8.19701 98.1536 9.94164H103.715C103.715 8.40148 103.672 6.50378 103.584 4.24854H106.682C106.58 6.10239 106.529 8.3686 106.529 11.0471C106.529 13.8429 106.58 16.3279 106.682 18.5026Z"
        fill="white" />
    <path fill-rule="evenodd" clip-rule="evenodd"
        d="M124.473 18.5026H121.374C121.469 16.2402 121.516 13.7552 121.516 11.0471C121.516 8.38334 121.469 6.11713 121.374 4.24854H124.473C124.37 6.08765 124.319 8.35424 124.319 11.0471C124.319 13.799 124.37 16.2841 124.473 18.5026ZM117.247 13.9812C117.247 13.1274 116.904 12.5163 116.217 12.1474C115.531 11.7789 114.729 11.5948 113.809 11.5948C113.444 11.5944 113.105 11.6129 112.791 11.6492C112.791 13.175 112.812 14.7658 112.856 16.4228C113.164 16.481 113.452 16.5105 113.721 16.5105C116.072 16.5101 117.247 15.6672 117.247 13.9812ZM120.192 13.872C120.192 15.4193 119.579 16.5887 118.352 17.3805C117.126 18.1727 115.499 18.5684 113.47 18.5684C112.645 18.5684 111.433 18.5465 109.835 18.5026C109.93 16.2693 109.977 13.7843 109.977 11.0471C109.977 8.1645 109.93 5.8983 109.835 4.24854H112.933C112.89 4.72324 112.842 6.47468 112.791 9.50359C113.258 9.46693 113.685 9.44879 114.072 9.44879C115.831 9.44879 117.291 9.79386 118.451 10.4836C119.611 11.173 120.192 12.3027 120.192 13.872Z"
        fill="white" />
    <path fill-rule="evenodd" clip-rule="evenodd"
        d="M137.03 16.0943L136.942 18.5026H127.626C127.72 16.2988 127.768 13.8134 127.768 11.0471C127.768 8.39052 127.72 6.12431 127.626 4.24854H136.515L136.395 6.64627C134.205 6.52948 132.22 6.4709 130.439 6.4709C130.512 7.4857 130.549 8.68268 130.549 10.0618C132.074 10.0618 133.705 10.0218 135.442 9.94164V12.2298C133.734 12.1568 132.103 12.1202 130.549 12.1202C130.549 13.6017 130.577 14.9884 130.636 16.2803C132.636 16.2803 134.767 16.2183 137.03 16.0943Z"
        fill="white" />
    <path fill-rule="evenodd" clip-rule="evenodd"
        d="M160.765 18.5026H157.579C157.579 17.2622 157.502 15.1691 157.349 12.2241C157.196 9.27909 157.115 7.44186 157.108 6.71203H156.944C156.871 7.1497 156.678 7.96003 156.364 9.14227C156.05 10.3249 155.461 12.0672 154.596 14.3701C153.731 16.673 153.298 18.0502 153.298 18.5026H150.879C150.879 18.0359 150.464 16.6454 149.636 14.3316C148.808 12.0181 148.266 10.3978 148.01 9.47071C147.755 8.54397 147.55 7.62441 147.397 6.71203H147.233C147.225 7.62441 147.137 9.58031 146.965 12.5801C146.793 15.5796 146.708 17.554 146.708 18.5026H143.818C143.818 18.2838 144.082 16.0906 144.611 11.9232C145.14 7.75556 145.405 5.19757 145.405 4.24854H149.642C149.642 5.06605 150.088 6.86888 150.983 9.65704C151.877 12.4448 152.324 14.2295 152.324 15.0104H152.488C152.488 14.222 152.997 12.4342 154.015 9.64608C155.034 6.85792 155.542 5.05887 155.542 4.24854H159.747C159.747 5.75921 159.916 8.45439 160.256 12.3337C160.595 16.213 160.764 18.2694 160.765 18.5026Z"
        fill="white" />
    <path fill-rule="evenodd" clip-rule="evenodd"
        d="M173.859 11.4302C173.859 9.9048 173.468 8.66776 172.687 7.7191C171.906 6.77006 170.943 6.29573 169.797 6.29573C168.731 6.29573 167.826 6.77384 167.082 7.72969C166.337 8.68628 165.965 9.89384 165.965 11.3535C165.965 12.8717 166.357 14.1069 167.142 15.0593C167.927 16.0118 168.888 16.4884 170.027 16.4884C171.092 16.4884 171.998 16.0084 172.741 15.0487C173.486 14.0887 173.859 12.8827 173.859 11.4302ZM176.88 11.1127C176.88 13.3536 176.194 15.2113 174.822 16.6853C173.45 18.1597 171.752 18.8967 169.731 18.8967C167.804 18.8967 166.191 18.2198 164.892 16.8659C163.593 15.5121 162.943 13.7913 162.943 11.7039C162.943 9.46336 163.629 7.60572 165.002 6.13132C166.374 4.65731 168.071 3.91992 170.092 3.91992C172.019 3.91992 173.632 4.59532 174.931 5.94537C176.23 7.2958 176.88 9.01813 176.88 11.1127Z"
        fill="white" />
    <path fill-rule="evenodd" clip-rule="evenodd"
        d="M189.536 0.285087C189.536 2.54033 188.24 3.66814 185.65 3.66814C184.263 3.66814 183.233 3.3106 182.562 2.59513C182.008 2.00402 181.73 1.23413 181.73 0.285087L184.161 0.000488281C184.161 1.39476 184.66 2.0917 185.66 2.0917C186.325 2.0917 186.75 1.91293 186.936 1.55501C187.122 1.19746 187.215 0.679291 187.215 0.000488281L189.536 0.285087ZM191.353 18.5024H188.255C188.357 17.2983 188.408 15.4773 188.408 13.0395C188.408 12.0542 188.448 10.6637 188.529 8.86839H188.364C188.109 9.52528 186.875 11.1603 184.664 13.7731C182.664 16.1523 181.664 17.7291 181.664 18.5024H179.3C179.424 16.5684 179.486 14.3132 179.486 11.7367C179.486 9.11671 179.424 6.62033 179.299 4.2483H182.387C182.284 6.10216 182.233 8.10568 182.233 10.2589C182.233 11.2223 182.182 12.4264 182.08 13.8717H182.245C182.551 13.1491 183.81 11.4959 186.021 8.91224C187.985 6.61315 188.967 5.05863 188.967 4.2483H191.353C191.244 6.62033 191.189 9.11671 191.189 11.7367C191.189 14.3132 191.244 16.5684 191.353 18.5024Z"
        fill="white" />
    <path fill-rule="evenodd" clip-rule="evenodd"
        d="M205.816 18.5026H202.378C202.312 18.3934 202.214 18.1451 202.082 17.7585C201.484 15.4522 200.922 13.9668 200.397 13.3024C199.871 12.6383 199.119 12.3061 198.141 12.3061C197.864 12.3061 197.641 12.3209 197.473 12.35C197.473 14.4593 197.513 16.5105 197.593 18.5026H194.507C194.601 16.2988 194.649 13.8134 194.649 11.0471C194.649 8.39052 194.601 6.12431 194.507 4.24854H197.593C197.513 6.40891 197.473 8.37616 197.473 10.1495C197.772 10.1643 197.995 10.1714 198.141 10.1714C200.141 10.1714 201.454 8.4234 202.082 4.92734C202.126 4.67184 202.214 4.44583 202.345 4.24854H205.301C205.206 4.47493 205.06 4.87253 204.863 5.44211C204.381 7.1497 203.865 8.3943 203.314 9.17515C202.763 9.95638 202.02 10.5437 201.086 10.9379V11.0581C202.057 11.3722 202.803 11.8941 203.325 12.6236C203.847 13.3538 204.517 14.9117 205.334 17.2985C205.436 17.605 205.596 18.0064 205.816 18.5026Z"
        fill="white" />
    <path fill-rule="evenodd" clip-rule="evenodd"
        d="M219.928 18.5026H216.829C216.931 17.2985 216.982 15.4775 216.982 13.0397C216.982 12.0544 217.023 10.6639 217.102 8.86863H216.938C216.683 9.52551 215.45 11.1605 213.238 13.7733C211.239 16.1525 210.238 17.7294 210.238 18.5026H207.874C207.998 16.5687 208.06 14.3134 208.06 11.7369C208.06 9.11694 207.998 6.62057 207.874 4.24854H210.961C210.859 6.10239 210.808 8.10592 210.808 10.2591C210.808 11.2225 210.757 12.4267 210.655 13.872H210.819C211.126 13.1493 212.384 11.4962 214.596 8.91247C216.559 6.61339 217.54 5.05887 217.54 4.24854H219.928C219.818 6.62057 219.763 9.11694 219.763 11.7369C219.763 14.3134 219.818 16.5687 219.928 18.5026Z"
        fill="white" />
</svg>